<svg  viewBox="0 0 144 144" fill="none" xmlns="http://www.w3.org/2000/svg">
<path d="M119.949 94.9149C118.889 93.104 116.812 91.3769 114.731 90.9029C110.46 89.9301 104.864 92.1955 103.992 97.0006C103.393 100.298 102.474 103.509 101.253 106.623C99.95 109.498 98.4021 112.253 96.5886 114.84C96.3576 115.17 96.1216 115.496 95.8821 115.82C95.1342 116.833 95.7811 116.121 96.1117 115.588C95.5154 116.526 94.5836 117.327 93.8599 118.122C93.8951 118.178 93.9341 118.241 93.9795 118.314C93.9338 118.25 93.891 118.187 93.8523 118.129C93.843 118.139 93.8337 118.148 93.8244 118.157C93.6803 117.957 93.5369 117.757 93.4056 117.551C92.2309 115.708 91.2202 113.766 90.323 111.774C88.1408 106.222 86.8685 100.389 86.0113 94.4944C84.6808 83.9849 84.1555 73.3831 82.8891 62.8625C82.1028 56.3283 81.2021 49.8055 80.1633 43.3065C79.3482 38.2087 78.5465 33.0781 77.2305 28.0804C75.8899 22.9887 73.9675 17.8033 71.0133 13.417C67.3461 7.9721 62.7409 3.94463 56.5734 1.59623C50.0681 -0.88107 42.642 0.476457 37.4822 5.10369C32.6839 9.40674 31.3636 15.8411 30.616 21.9225C29.0044 35.0321 27.8963 48.2233 26.5455 61.3629C26.3304 63.4535 27.6746 66.108 29.1025 67.536C30.6166 69.0503 33.1009 70.1905 35.2755 70.093C37.5334 69.9917 39.8751 69.2503 41.4486 67.536C43.1038 65.7332 43.7562 63.7902 44.0056 61.3629C45.3268 48.5137 46.3718 35.5978 47.9737 22.7792C48.2007 21.3579 48.5042 19.9576 48.9608 18.5937C50.4743 16.2657 54.2507 20.2384 55.4525 21.5663C55.4007 21.4845 55.3466 21.3987 55.2875 21.3038C56.6043 23.0798 57.6036 24.9041 58.5188 26.8899C60.234 31.3323 61.2586 35.9968 62.1007 40.677C63.128 46.385 64.0062 52.1216 64.7948 57.8674C65.871 66.1013 66.6898 74.3571 67.3784 82.6326C68.073 90.9835 68.8121 99.4185 70.7429 107.59C72.6772 115.776 75.958 124.402 81.6413 130.747C85.5494 135.11 91.5883 137.482 97.3784 135.97C102.042 134.752 105.637 131.409 108.565 127.744C114.646 120.133 119.079 111.28 120.829 101.643C121.256 99.2875 121.194 97.0439 119.949 94.9149Z" fill="#D4D2EE"/>
<path d="M141.921 78.2685C141.703 73.4052 138.086 69.7054 133.191 69.5384C101.675 68.464 70.1013 69.2483 38.68 71.9173C29.7983 72.6716 20.9303 73.579 12.0789 74.6292C9.68451 74.9135 7.67717 75.4149 5.90584 77.1862C4.39175 78.7003 3.2516 81.1846 3.3488 83.3593C3.44977 85.6172 4.19154 87.9589 5.90584 89.5323C7.495 90.9911 9.83379 92.3556 12.0789 92.0893C43.3934 88.3738 74.9218 86.5059 106.456 86.5286C115.37 86.535 124.283 86.6947 133.191 86.9985C137.76 87.1542 142.127 82.8718 141.921 78.2685Z" fill="#C9E7DF"/>
<path d="M141.288 68.4703C134.546 68.2841 127.695 68.0731 120.791 67.8621C122.185 59.4635 123.075 51.0937 124.507 42.7518C125.384 37.5013 126.522 32.2897 128.157 27.2297C130.749 18.8593 132.761 9.01938 141.707 5.3769C148.856 -1.07987 130.587 -3.23911 123.697 13.0399C120.804 19.4882 119.982 26.6277 119.267 33.5777C118.658 40.2224 117.924 47.1486 117.387 53.8082C116.953 58.4031 116.522 63.1226 115.813 67.7108C94.1433 67.0552 72.0324 66.4583 50.9452 66.69C44.8245 66.7944 38.7327 67.2263 32.6533 67.8007C32.6039 66.729 32.5605 65.6997 32.6332 64.8142C32.9903 48.619 33.8863 31.9157 39.8111 16.6768C40.9245 12.9665 42.8454 9.31183 46.0357 7.07286C48.9041 4.96426 52.5876 5.72814 55.128 7.9156C64.6191 16.041 65.2727 36.44 66.7751 48.3545C67.262 52.7422 73.9195 51.6632 73.0506 47.3758C71.2388 38.5998 70.2171 29.3089 67.8163 20.6278C63.4289 -1.16688 42.9473 -9.46336 33.891 14.5673L33.9919 14.2833C27.259 30.1683 25.5587 47.4806 24.319 64.5173C24.3135 65.7148 24.1325 67.1928 24.0292 68.6926C17.3032 69.4356 10.5837 70.2498 3.84931 70.8894C1.03881 71.099 0.939866 75.4343 3.72156 75.8033C15.169 77.4908 26.9671 76.6711 38.4056 76.0233C49.0106 75.4526 59.686 74.5953 70.3029 73.8984C70.3676 75.0726 70.4677 76.8876 70.4674 76.8876C71.9593 91.5268 70.6597 106.185 74.6296 120.598C77.2698 128.793 81.6314 139.152 90.3027 142.372C95.6839 144.155 102.18 142.151 105.521 137.47C114.651 125.028 115.998 109.166 117.561 94.323C117.934 91.5396 113.698 90.5181 112.768 93.1913C109.641 101.06 108.116 109.449 105.492 117.439C103.759 122.842 101.461 128.144 98.3087 132.855C96.3101 135.553 92.0632 135.745 89.6185 133.494C78.2491 123.083 77.5117 106.517 76.5839 92.1027C76.3238 86.0294 75.5782 79.6876 75.2177 73.6007C89.251 73.0484 103.475 72.95 117.609 73.0187C117.784 73.0359 117.959 73.0362 118.132 73.0207C123.002 73.0458 127.862 73.09 132.699 73.1418C135.144 73.1904 138.911 73.2829 141.287 73.3941C144.622 73.5445 144.544 68.3397 141.288 68.4703Z" fill="#2F2B71"/>
<path d="M24.8525 94.3677C23.7121 100.454 22.5582 106.443 20.9912 112.391C18.937 120.236 16.9969 130.12 9.25825 134.128C7.66909 134.889 5.85469 135.201 3.99285 135.291C-1.68141 136.027 -0.595967 144.636 5.07073 143.963C19.3578 142.769 24.9523 127.458 26.3843 115.208C27.5219 108.485 28.3643 101.627 28.7505 94.8551C28.9591 92.4654 25.2448 92.0059 24.8525 94.3677Z" fill="#2F2B71"/>
</svg>
