<svg viewBox="0 0 150 150" xmlns="http://www.w3.org/2000/svg">
  <g id='box1'>
    <g clip-path="url(#clip-0)">
      <path fill="rgb(94.898987%, 94.509888%, 100%)" d="M 25.464844 100.828125 L 3.644531 89.765625 L 25.464844 78.699219 L 47.285156 89.765625 Z M 25.464844 100.828125 " fill-opacity="1" fill-rule="nonzero"/>
    </g>
    <g clip-path="url(#clip-1)">
      <path fill="rgb(18.429565%, 16.859436%, 44.309998%)" d="M 25.464844 100.828125 L 3.644531 89.765625 L 3.644531 140.195312 L 25.464844 151.261719 L 47.285156 140.195312 L 47.285156 89.765625 Z M 25.464844 100.828125 " fill-opacity="1" fill-rule="nonzero"/>
    </g>
    <g clip-path="url(#clip-2)">
      <path fill="rgb(94.898987%, 94.509888%, 100%)" d="M 25.464844 100.828125 L 25.464844 151.261719 L 47.285156 140.195312 L 47.285156 89.765625 Z M 25.464844 100.828125 " fill-opacity="1" fill-rule="nonzero"/>
    </g>
  </g>
  <g style="" id='box2'>
    <path fill="rgb(18.429565%, 16.859436%, 44.309998%)" d="M 74.895 71.164 L 53.074 60.066 L 53.074 140.195 L 74.895 151.262 L 96.715 140.195 L 96.715 60.066 Z M 74.895 71.164" fill-opacity="1" fill-rule="nonzero"/>
    <path fill="rgb(94.898987%, 94.509888%, 100%)" d="M 74.895 71.164 L 74.895 151.262 L 96.715 140.195 L 96.715 60.066 Z M 74.895 71.164" fill-opacity="1" fill-rule="nonzero"/>
    <path fill="rgb(94.898987%, 94.509888%, 100%)" d="M 74.895 71.164 L 53.074 60.066 L 74.895 49.004 L 96.715 60.066 Z M 74.895 71.164" fill-opacity="1" fill-rule="nonzero"/>
  </g>
  <g style="" id='box3'>
    <path fill="rgb(18.429565%, 16.859436%, 44.309998%)" d="M 134.145 43.309 L 104.172 28.035 L 104.172 138.332 L 134.145 153.563 L 164.121 138.332 L 164.121 28.035 Z M 134.145 43.309" fill-opacity="1" fill-rule="nonzero"/>
    <path fill="rgb(94.898987%, 94.509888%, 100%)" d="M 134.145 43.309 L 104.172 28.035 L 134.145 12.805 L 164.121 28.035 Z M 134.145 43.309" fill-opacity="1" fill-rule="nonzero"/>
    <path fill="rgb(94.898987%, 94.509888%, 100%)" d="M 134.145 43.309 L 134.145 153.563 L 164.121 138.332 L 164.121 28.035 Z M 134.145 43.309" fill-opacity="1" fill-rule="nonzero"/>
  </g>
  <g id='bola' transform="matrix(1, 0, 0, 1, -0.336144, 0.168059)">
    <g clip-path="url(#clip-7)">
      <path fill="rgb(18.429565%, 16.859436%, 44.309998%)" d="M 25.859375 68.199219 C 28.851562 68.199219 31.402344 69.261719 33.519531 71.375 C 35.65625 73.507812 36.71875 76.070312 36.71875 79.0625 C 36.71875 82.054688 35.65625 84.605469 33.519531 86.71875 C 31.402344 88.851562 28.851562 89.921875 25.859375 89.921875 C 22.871094 89.921875 20.308594 88.851562 18.175781 86.71875 C 16.058594 84.605469 15 82.054688 15 79.0625 C 15 76.070312 16.058594 73.507812 18.175781 71.375 C 20.308594 69.261719 22.871094 68.199219 25.859375 68.199219 Z M 31.164062 70.554688 C 29.601562 69.558594 27.835938 69.0625 25.859375 69.0625 C 23.105469 69.0625 20.742188 70.035156 18.777344 71.976562 C 16.832031 73.945312 15.859375 76.304688 15.859375 79.0625 C 15.859375 81.816406 16.832031 84.167969 18.777344 86.113281 C 19.335938 86.671875 19.925781 87.152344 20.546875 87.550781 C 22.113281 88.558594 23.886719 89.058594 25.859375 89.058594 C 28.617188 89.058594 30.964844 88.082031 32.914062 86.113281 C 34.878906 84.167969 35.859375 81.816406 35.859375 79.0625 C 35.859375 76.304688 34.878906 73.945312 32.914062 71.976562 C 32.363281 71.425781 31.777344 70.953125 31.164062 70.554688 " fill-opacity="1" fill-rule="evenodd"/>
    </g>
    <path fill="rgb(97.648621%, 98.039246%, 98.429871%)" d="M 22.645 84.148 C 22.645 84.473 22.582 84.758 22.469 85.008 C 22.262 85.469 21.895 85.699 21.379 85.699 C 20.516 85.699 19.906 85.43 19.539 84.895 C 19.313 84.59 19.195 84.262 19.195 83.918 C 19.195 82.652 19.77 82.02 20.918 82.02 C 22.066 82.02 22.645 82.73 22.645 84.148 Z M 24.051 73.113 C 24.051 73.668 23.59 74.168 22.672 74.609 C 21.656 75.086 21.023 75.91 20.773 77.078 C 20.66 77.672 20.688 78.582 20.863 79.809 C 20.82 80.766 20.211 81.242 19.023 81.242 C 18.121 81.242 17.551 80.863 17.297 80.094 C 17.242 79.887 17.215 79.453 17.215 78.801 C 17.215 74.395 19.438 72.242 23.879 72.34 C 23.879 72.375 23.906 72.434 23.965 72.512 C 24.023 72.566 24.051 72.766 24.051 73.113" fill-opacity="1" fill-rule="evenodd"/>
    <path fill="rgb(94.898987%, 94.509888%, 100%)" d="M 22.645 84.148 C 22.645 82.73 22.066 82.02 20.918 82.02 C 19.77 82.02 19.195 82.652 19.195 83.918 C 19.195 84.262 19.313 84.59 19.539 84.895 C 19.906 85.43 20.516 85.699 21.379 85.699 C 21.895 85.699 22.262 85.469 22.469 85.008 C 22.582 84.758 22.645 84.473 22.645 84.148 Z M 31.164 70.555 C 31.246 71.145 31.355 71.719 31.492 72.281 C 31.855 73.773 32.039 74.973 32.039 75.871 C 32.039 79.664 29.617 82.863 24.77 85.469 C 22.922 86.363 21.516 87.059 20.547 87.551 C 19.926 87.152 19.336 86.672 18.777 86.113 C 16.832 84.168 15.859 81.816 15.859 79.063 C 15.859 76.305 16.832 73.945 18.777 71.977 C 20.742 70.035 23.105 69.063 25.859 69.063 C 27.836 69.063 29.602 69.559 31.164 70.555 Z M 24.051 73.113 C 24.051 72.766 24.023 72.566 23.965 72.512 C 23.906 72.434 23.879 72.375 23.879 72.34 C 19.438 72.242 17.215 74.395 17.215 78.801 C 17.215 79.453 17.242 79.887 17.297 80.094 C 17.551 80.863 18.121 81.242 19.023 81.242 C 20.211 81.242 20.82 80.766 20.863 79.809 C 20.688 78.582 20.66 77.672 20.773 77.078 C 21.023 75.91 21.656 75.086 22.672 74.609 C 23.59 74.168 24.051 73.668 24.051 73.113" fill-opacity="1" fill-rule="evenodd"/>
    <g clip-path="url(#clip-8)">
      <path fill="rgb(94.898987%, 94.509888%, 100%)" d="M 20.546875 87.550781 C 21.515625 87.058594 22.921875 86.363281 24.769531 85.46875 C 29.617188 82.863281 32.039062 79.664062 32.039062 75.871094 C 32.039062 74.972656 31.855469 73.773438 31.492188 72.28125 C 31.355469 71.71875 31.246094 71.144531 31.164062 70.554688 C 31.777344 70.953125 32.363281 71.425781 32.914062 71.976562 C 34.878906 73.945312 35.859375 76.304688 35.859375 79.0625 C 35.859375 81.816406 34.878906 84.167969 32.914062 86.113281 C 30.964844 88.082031 28.617188 89.058594 25.859375 89.058594 C 23.886719 89.058594 22.113281 88.558594 20.546875 87.550781 " fill-opacity="1" fill-rule="evenodd"/>
    </g>
  </g>
</svg>