<svg viewBox="0 0 144 144" fill="none" xmlns="http://www.w3.org/2000/svg">
<g clip-path="url(#clip0_68_370)">
<path d="M139.167 118.949C137.853 115.835 134.765 113.668 131.321 113.671C122.993 113.679 116.123 114.391 116.389 112.505C117.212 106.663 114.166 102.851 110.379 92.4723C109.191 89.2139 107.045 83.6998 106.131 80.3444C105.332 77.4085 104.004 74.6629 102.766 71.8916C102.368 70.8451 102.041 69.7891 101.811 68.6939C101.589 65.7577 101.806 62.788 101.904 59.8521C102.02 56.3505 102.138 52.8491 102.258 49.3477C102.499 42.3447 102.75 35.3422 103.009 28.3397C103.175 23.8468 98.9411 19.5521 94.4235 19.7544C89.6298 19.9691 86.0162 23.5262 85.8382 28.3397C85.5057 37.3291 85.1877 46.3191 84.8847 55.3096C84.7381 59.6604 84.3229 64.1099 84.6134 68.4583C84.7928 71.1452 85.1903 73.8442 86.1619 76.3648C86.9031 78.2882 87.7756 80.1521 88.6113 82.0329C89.4649 84.2627 90.0256 86.5616 90.4005 88.914C91.018 94.141 91.4232 99.6302 90.939 104.871C90.6655 106.379 90.2702 107.844 89.74 109.285C88.4258 112.097 86.7992 114.772 85.1454 117.391C84.2491 119.147 82.7051 120.509 80.8882 121.255C78.464 122.171 75.9588 122.833 73.4038 123.264C72.6171 123.345 71.8298 123.412 71.0386 123.452C66.5605 123.681 62.2383 127.237 62.4533 132.038C62.6582 136.616 66.2276 140.714 71.0386 140.623C82.35 140.408 93.6901 140.407 104.994 139.933C116.697 139.443 128.872 137.021 137.392 128.328C139.824 125.846 140.509 122.13 139.167 118.949Z" fill="#D4D2EE"/>
<path d="M88.5658 107.245C88.0681 105.438 86.9543 103.917 85.4891 102.785C84.5522 102.061 83.5863 101.583 82.4997 101.304C81.104 100.158 79.3148 99.4777 77.2472 99.575C68.0632 100.008 58.8758 100.368 49.6858 100.652C41.1869 100.914 32.5961 101.395 24.1259 100.424C22.6895 100.199 21.2632 99.9281 19.8452 99.5996C15.479 98.588 10.343 100.948 9.28415 105.596C9.0452 106.645 8.99826 107.735 9.12618 108.801C8.5172 110.965 8.74643 113.312 9.894 115.456C14.9837 124.966 24.123 133.024 34.737 135.616C36.9486 136.156 39.1842 136.448 41.4218 136.521C50.7137 143.171 62.8777 138.756 71.6573 132.841C74.1247 131.178 76.4903 129.339 78.7725 127.432C80.8879 125.664 82.8657 123.786 84.3189 121.404C85.101 120.122 85.6688 118.715 86.0108 117.257C86.958 115.531 87.7991 113.728 88.5661 111.809C89.0726 110.541 88.9201 108.532 88.5658 107.245Z" fill="#C9E7DF"/>
<path d="M142.112 112.407C141.079 110.299 139.189 109.719 137.481 110.101C137.159 110.062 136.816 110.052 136.451 110.079C132.505 110.438 128.559 110.723 124.614 110.976C113.552 111.691 102.415 112.442 91.3732 111.099C95.6831 99.067 95.0898 85.3199 87.6401 73.1291C88.0241 72.6074 88.247 71.9185 88.1992 71.0569C87.8152 65.2875 88.2688 59.3064 88.1074 53.4693C88.0393 48.618 88.1446 42.7823 88.1117 37.9367C88.6297 34.0319 86.7558 29.0761 87.8192 25.5107C92.0792 25.4397 96.4102 25.3942 100.657 25.2093C101.893 25.2454 103.381 25.2943 104.935 25.3455C105.963 44.981 100.333 66.9677 113.505 83.5073C115.869 87.0756 118.905 90.9344 120.906 94.6576C123.04 98.5033 128.746 94.8722 126.18 91.311C121.098 84.2482 114.536 77.8501 111.778 69.464C108.714 54.936 111.677 40.2611 111.658 25.5536C112.526 25.5762 113.301 25.5928 113.927 25.6005C119.546 25.2179 118.982 16.6932 113.384 17.0215C108.776 17.3288 103.654 17.6067 99.0127 17.797C95.9976 17.9172 92.8622 17.3492 89.8059 17.5558C86.1525 17.4164 82.5212 17.2702 79.2173 17.1517C73.5931 17.3297 73.8529 25.8761 79.4551 25.7393C80.0718 25.7115 80.6931 25.6875 81.3176 25.6658C81.068 29.8603 82.5447 34.7633 82.3982 38.4788C82.4076 39.2812 82.5235 41.2844 82.5269 42.1229C82.8881 50.1219 83.1291 58.1706 82.4623 66.1756C82.1678 65.845 81.8696 65.5156 81.5628 65.1888C76.4969 59.7297 70.0762 55.3707 62.9656 53.1416C60.5783 38.5887 61.2686 23.142 61.5576 8.38295C62.5976 8.09477 63.6235 7.74449 64.6289 7.31551C70.397 2.48198 59.0115 0.497632 55.6492 0.793539C52.7147 0.776082 49.6976 1.64635 46.8172 2.28767C42.793 3.13561 38.686 3.0137 34.6077 2.94044C32.765 2.84514 30.8977 2.72867 29.0673 2.41244C26.0107 1.84724 25.2137 6.65044 28.2666 7.12549C29.998 7.43571 31.7511 7.69584 33.5137 7.92707C33.263 11.1042 32.6314 19.1072 32.6314 19.1089C31.8622 28.4571 31.6324 38.0338 32.2385 47.4161C32.1523 49.1131 32.2021 51.1309 30.4001 51.5087C30.3611 51.5273 30.3274 51.549 30.2893 51.5682C25.4315 53.1242 19.3911 58.2213 16.8679 60.0107C12.6319 63.5728 8.91018 67.896 6.19636 72.8775C0.589581 83.2028 -1.55045 95.511 1.18283 107.01C5.13951 125.44 21.8145 139.535 40.2283 142.163C45.4169 142.882 50.3981 142.767 55.0934 141.955C56.9622 141.873 58.8321 141.811 60.7022 141.765C73.0133 141.449 85.547 141.921 97.8697 142.105C107.676 142.515 118.252 145.22 127.532 140.43C137.622 135.268 148.45 124.432 142.112 112.407ZM8.81603 107.783C12.2187 107.214 15.6969 106.636 19.0119 105.857C20.9433 105.434 20.9814 102.437 19.0174 101.994C17.9554 101.715 16.8931 101.513 15.8308 101.304C13.1459 100.813 10.2154 100.281 7.47214 99.8248C6.3363 82.3832 16.944 66.2511 33.4101 59.5394C33.6276 59.4727 33.8474 59.3949 34.0712 59.2907C40.1773 56.8133 40.7986 49.2599 39.6001 43.7169C37.6698 32.0521 38.0765 20.2124 37.5576 8.40556C40.6215 8.73066 43.693 8.98736 46.7196 9.24177C49.5874 9.48502 52.5181 9.60235 55.4145 9.39802C55.4821 12.487 55.5058 15.588 55.5373 18.6999C55.6523 28.7433 55.7897 39.0986 57.097 49.0719C58.2514 56.5946 57.0314 57.0007 64.8432 59.3099C81.8802 67.1606 89.6547 83.8693 88.1268 99.7928C87.8209 99.7667 87.4981 99.7696 87.1579 99.8076C79.9883 100.61 72.7966 101.081 65.5933 101.38C61.4606 101.556 56.8217 101.905 52.7765 100.956C47.8434 99.9708 47.5833 107.835 52.5556 107.198C63.8115 106.086 75.1358 107.589 86.384 108.289C83.2495 118.109 76.2969 126.892 65.5028 132.099C59.977 134.869 54.0523 136.188 48.1751 136.241C47.8039 136.23 47.4322 136.221 47.061 136.209C46.8947 136.205 46.7374 136.213 46.5842 136.228C29.7147 135.726 13.5766 124.847 8.81603 107.783ZM134.336 125.139C132.125 128.757 128.678 131.421 125.122 133.752C116.53 139.197 105.797 135.775 96.1968 136.251C87.5903 136.298 78.9157 136.43 70.2457 136.468C78.2248 131.863 84.6269 125.01 88.7765 117.038C90.7588 117.174 93.2277 116.472 94.9931 116.744C108.45 117.712 122.023 117.864 135.503 118.609C136.11 120.821 135.624 123.08 134.336 125.139Z" fill="#2F2B71"/>
<path d="M65.1925 85.5794C65.7766 75.4677 51.3181 75.482 50.9532 85.2226C50.9228 94.7686 64.552 94.8481 65.1925 85.5794Z" fill="#2F2B71"/>
<path d="M29.1342 96.4442C28.4402 106.575 43.1288 106.76 43.0198 96.5902C42.6867 87.7355 30.0577 87.9021 29.1342 96.4442Z" fill="#2F2B71"/>
<path d="M48.4888 73.6118C48.4362 64.2836 34.0996 63.5232 33.7181 73.1657C33.6797 83.0213 48.2919 83.798 48.4888 73.6118Z" fill="#2F2B71"/>
</g>
<defs>
<clipPath id="clip0_68_370">
<rect width="144" height="144" fill="white"/>
</clipPath>
</defs>
</svg>
