<svg viewBox="0 0 144 144" fill="none" xmlns="http://www.w3.org/2000/svg">
<path d="M104.826 117.123C103.858 112.899 101.259 109.265 98.8777 105.743C96.6832 102.497 94.4569 99.2733 92.1992 96.0716C87.6839 89.6682 83.0434 83.3532 78.2809 77.1315C67.1155 62.5442 55.3828 48.4148 42.9819 34.8597C40.0837 31.6916 34.914 31.6815 31.6718 34.1864C31.2205 34.535 30.7869 34.9312 30.3913 35.367C24.1713 34.402 18.254 36.3338 13.604 40.5832C13.1081 40.508 12.6054 40.4399 12.094 40.3785C10.2823 40.1614 8.23191 41.1796 6.87497 42.2279C5.45169 43.3276 4.19897 44.8984 3.7881 46.7021C3.13145 49.5854 3.84725 52.9953 5.97311 55.1332C5.7704 56.2048 5.60904 57.2921 5.48988 58.3929C4.90444 63.8107 5.82381 69.2462 6.08796 74.6545C6.34522 79.924 6.13189 85.2014 5.50424 90.4374C5.15079 92.8015 4.71781 95.1502 4.19409 97.4842C3.42374 100.917 4.45423 104.355 7.28096 106.538C10.0959 108.713 13.7174 108.84 16.8476 107.212C17.4652 106.891 18.0912 106.591 18.7223 106.3C19.1992 106.118 19.6798 105.948 20.1622 105.786C20.7232 106.387 21.3672 106.924 22.0842 107.381C24.4406 108.885 27.0038 110.071 29.6829 110.945C30.3557 111.91 31.2325 112.756 32.3035 113.427C33.4658 114.155 34.6683 114.797 35.8997 115.364C35.5187 116.488 35.1653 117.621 34.844 118.762C33.7225 122.745 32.6581 126.984 33.9062 131.077C35.0774 134.92 37.9696 137.724 41.7128 139.032C44.1448 139.881 46.9121 139.897 49.4715 139.996C53.594 140.155 57.7234 140.072 61.8405 139.824C66.8944 139.519 71.9294 138.975 76.9524 138.33C83.0997 138.639 89.2617 138.682 95.4345 138.425C98.9136 138.28 101.936 136.377 103.306 133.13C104.014 131.452 104.166 129.521 103.757 127.725C105.314 124.562 105.687 120.877 104.826 117.123Z" fill="#C9E7DF"/>
<path d="M31.9748 16.4748C31.0609 16.0077 30.1685 15.5081 29.304 14.954C28.8911 14.6892 28.492 14.4064 28.0886 14.1285C26.5576 12.8114 25.1536 11.4042 23.8842 9.82908C22.9835 8.71131 21.3498 7.93091 19.7746 7.55736C18.2678 6.16538 15.9441 5.14409 13.8966 5.23597C11.6688 5.3356 9.35834 6.06748 7.80586 7.75892C6.17098 9.53995 5.53557 11.4539 5.2829 13.8497C4.75603 18.8448 4.22916 23.8401 3.70229 28.8352C3.39363 31.7628 5.55998 34.8634 7.96866 36.2729C10.5218 37.7668 14.126 37.9385 16.6636 36.2729C17.904 35.4586 19.1903 34.7442 20.526 34.1123C22.2597 33.468 24.0344 32.9799 25.855 32.65C26.4442 32.5951 27.034 32.5506 27.6272 32.5259C31.2851 32.3749 35.0746 29.9714 35.9331 26.202C36.7496 22.6181 35.4504 18.2516 31.9748 16.4748Z" fill="#D4D2EE"/>
<path d="M38.0503 125.118C37.3661 120.027 34.8604 115.067 31.7316 111.017C30.1694 108.995 28.1624 107.507 25.652 106.843C23.3232 106.227 21.1873 106.594 18.859 106.954C16.1388 107.374 13.4209 107.81 10.7021 108.238C8.70714 108.552 6.52874 110.531 5.55424 112.197C5.44685 112.38 5.34751 112.575 5.25305 112.774C4.34975 113.433 3.57624 114.258 3.04593 115.261C2.03008 117.184 1.34213 119.784 2.17766 121.899C3.18231 124.442 4.23892 126.53 5.89793 128.677C7.53453 130.796 9.31728 132.395 11.4948 133.98C15.2427 136.708 19.8533 138.055 24.4341 138.376C27.0078 138.557 29.691 138.21 32.0621 137.21C34.8661 136.026 36.9225 133.723 37.8384 130.812C38.4402 128.897 38.3096 127.047 38.0503 125.118Z" fill="#D4D2EE"/>
<path d="M135.755 126.523C134.235 123.756 132.715 120.989 131.196 118.221C130.603 117.141 129.74 116.238 128.722 115.543C128.421 113.039 127.126 110.718 124.667 109.419C120.803 107.377 114.982 108.181 112.881 112.509C110.093 118.254 107.956 124.26 106.876 130.562C106.342 133.678 106.756 136.607 109.091 138.942C111.46 141.311 114.329 141.632 117.472 141.158C121.85 140.497 126.229 139.837 130.607 139.176C133.165 138.79 135.25 136.414 136.189 134.189C137.269 131.629 137.099 128.971 135.755 126.523Z" fill="#D4D2EE"/>
<path d="M143.446 126.634C143.025 124.99 142.066 123.394 140.91 122.118C138.193 118.758 135.66 114.648 132.83 111.202C126.224 101.886 114.106 97.1458 106.508 108.178C100.953 116.45 99.9755 126.813 100.392 136.57C97.0273 136.657 93.8807 136.744 91.1798 136.825C73.3781 137.499 55.5365 138.035 37.7116 138.031C37.2453 136.173 37.1781 134.22 37.2502 132.084C37.0136 125.146 40.1619 117.329 36.2048 110.883C29.3126 102.915 16.0708 105.853 6.78779 105.138C6.79985 105.133 6.81277 105.128 6.8254 105.125C6.63102 105.127 6.44468 105.139 6.26408 105.16C6.3594 90.459 6.09841 75.7852 5.90747 61.1594C5.9336 56.0624 5.91063 50.2703 5.9804 44.7316C6.52708 44.889 7.11339 44.9409 7.7129 44.866C13.636 44.2418 19.2243 42.6526 24.6024 40.2387C30.1757 37.8056 35.0901 34.2292 40.2394 31.0513C41.0574 31.8915 41.8378 32.6931 42.5379 33.4195C52.9323 43.8961 63.1706 54.5938 73.7215 64.9239C80.8315 71.8396 88.1991 78.5921 96.1539 84.6484C98.4586 86.4921 101.438 83.0517 99.372 81.0114C87.5985 69.1156 75.5961 55.5283 64.1387 43.2931C60.8047 39.5531 42.1591 20.9116 38.2749 16.9711C33.0312 11.27 27.7633 5.06694 20.628 1.42075C13.4427 -2.39455 3.59268 1.83708 1.64253 9.78553C-1.12764 19.2798 0.516434 29.2086 0.20347 38.8516C0.177916 65.8993 1.8507 93.0382 1.16964 120.068C1.1639 120.147 1.16275 120.229 1.1639 120.313C1.15327 120.494 1.15701 120.666 1.17825 120.827C1.46882 128.976 5.47535 137.497 13.1085 141.119C15.5522 142.298 18.3253 142.86 21.0274 142.95C57.1995 144.073 93.7874 142.646 129.939 144L129.275 143.94C138.161 144.851 145.763 135.113 143.446 126.634ZM12.352 7.40671C19.5677 5.41637 27.6996 17.8882 32.2315 22.5714C33.3419 23.8431 34.7106 25.3117 36.1448 26.8157C32.4498 30.6422 27.3074 32.7787 22.3714 34.5422C20.1439 35.2606 17.8283 35.8285 15.51 36.1372C12.9205 36.8108 8.99089 35.9161 6.1989 36.484C6.55436 28.9886 4.23555 9.23454 12.352 7.40671ZM20.6628 137.851C17.37 137.745 14.1057 136.514 11.7154 134.209C7.96615 130.677 6.1432 125.418 6.02232 120.331C6.08118 118.118 6.12769 115.906 6.16531 113.695C6.50182 113.735 6.86043 113.742 7.24346 113.706C14.4144 112.751 22.2345 110.907 29.1852 113.048C33.9925 114.498 32.413 120.871 32.4529 124.914C32.2143 129.276 31.6717 133.61 31.5844 138.007C27.9428 137.98 24.302 137.931 20.6628 137.851ZM132.303 135.073C131.626 135.549 130.84 136.059 130.054 135.87C123.412 136.015 114.104 136.226 105.454 136.441C105.63 134.381 105.923 132.338 106.297 130.288C107.547 123.487 109.219 115.323 114.709 110.726C122.396 106.182 130.128 123.686 134.82 128.229C136.252 130.508 134.483 133.747 132.303 135.073Z" fill="#2F2B71"/>
</svg>
