<svg  viewBox="0 0 144 144" fill="none" xmlns="http://www.w3.org/2000/svg">
<g clip-path="url(#clip0_68_435)">
<path d="M104.878 20.8563C104.717 19.8668 104.158 18.8373 103.432 17.9279C103.37 17.5536 103.3 17.1825 103.214 16.821C102.458 13.6559 100.349 10.9488 97.5002 9.38657C94.0838 7.51279 89.9414 6.46425 86.1381 5.7307C82.1279 4.95724 78.0393 4.49675 73.9669 4.20518C69.6605 3.89684 64.869 3.13147 60.8738 5.11517C60.4362 4.72555 59.9809 4.38857 59.536 4.12824C57.6761 3.03978 54.9346 2.57871 52.8494 3.25354C48.0617 4.80307 45.9004 9.13521 46.7886 13.9281C46.8532 14.2767 46.9142 14.6255 46.9715 14.9749C47.6133 21.0831 47.1201 27.2187 47.0018 33.3474C46.8077 35.966 46.7134 38.5898 46.6874 41.1966C46.6487 45.0549 46.4899 49.0452 47.0044 52.8735C47.3897 55.7411 48.4033 58.2703 50.5466 60.3486C53.0544 62.7801 56.5547 63.5778 59.9419 63.4754C67.4873 63.2469 75.029 62.7138 82.5374 61.9384C86.8777 61.4903 91.2043 60.9375 95.5269 60.3454C98.2499 59.9723 100.71 59.3785 102.796 57.3933C105.58 54.7429 106.016 51.3176 106.288 47.684C106.96 38.696 106.326 29.7404 104.878 20.8563Z" fill="#C9E7DF"/>
<path d="M140.274 96.2388C139.866 92.1667 139.321 87.8496 137.817 84.0066C136.523 80.7016 134.822 78.0373 131.879 75.9405C130.153 74.7112 128.086 74.0314 125.975 73.8625C125.335 73.5403 124.659 73.271 123.949 73.063C120.437 72.0347 116.552 71.7194 112.933 71.3553C109.826 71.0423 106.698 70.9199 103.576 70.9862C99.9659 71.0628 95.9542 71.1427 92.4594 72.0501C90.0908 72.665 87.9896 74.148 86.5147 76.0846C86.3979 76.084 86.281 76.0843 86.1636 76.0895C81.386 76.3035 77.5811 79.9013 77.486 84.7671C77.3969 89.326 77.0712 93.8704 76.5158 98.3947C76.0944 101.312 75.587 104.216 74.9695 107.099C74.9585 107.151 74.9475 107.202 74.9365 107.254C74.7013 107.556 74.4922 107.87 74.321 108.194C72.9832 110.726 72.862 114.053 74.1191 116.668C74.3331 118.162 74.7858 119.641 75.5847 121.106C79.1058 127.559 86.909 129.341 93.5569 130.541C100.414 131.778 107.835 132.803 114.797 131.868C116.203 131.679 117.605 131.371 118.952 130.92C120.838 130.989 122.725 130.944 124.597 130.692C127.714 130.274 130.419 129.154 132.831 127.088C135.059 125.179 136.275 122.637 137.292 119.954C138.805 115.963 139.556 111.78 140.087 107.562C140.56 103.8 140.652 100.014 140.274 96.2388Z" fill="#C9E7DF"/>
<path d="M68.4771 101.163C67.9634 97.0045 67.152 93.0059 65.5817 89.11C63.4753 83.884 61.0398 78.9242 55.2744 77.0145C53.639 76.4728 52.001 76.2425 50.3962 76.2758C48.8446 74.1854 46.3993 72.8415 43.5039 72.7446C39.4974 72.6107 35.4887 72.5872 31.4816 72.6917C27.4214 72.7975 23.1801 72.8108 19.2017 73.7006C16.7673 74.245 14.7223 75.2993 12.9845 76.7036C8.86148 76.3201 4.52413 78.6494 3.51058 82.9544C1.77044 90.3451 0.942307 98.0126 1.23619 105.603C1.25441 106.077 1.31342 106.549 1.40598 107.014C1.11991 110.319 1.06987 113.638 1.27784 116.913C1.55668 121.299 1.83089 126.135 4.3471 129.898C7.4586 134.552 12.6012 136.482 18.0241 136.619C21.4365 136.705 24.9283 136.174 28.3042 135.735C32.6713 135.167 37.0168 134.504 41.3275 133.596C48.6005 132.066 57.3981 130.511 62.8075 124.977C68.7481 118.898 69.4687 109.191 68.4771 101.163Z" fill="#D4D2EE"/>
<path d="M63.3314 52.8161C63.9215 51.0806 64.2749 49.2962 64.504 47.4901C65.5106 47.2686 66.5224 46.9935 67.4691 46.8196C71.3616 46.4141 75.9223 45.5492 79.9041 46.1396C79.7181 48.2118 79.5287 50.2629 79.5053 52.2301C79.3002 55.3627 84.1995 55.6433 84.367 52.5176C84.7775 43.4007 87.9433 33.0023 81.808 25.0047C75.0085 17.3066 59.9309 19.9715 57.5107 30.3007C55.4316 37.6521 57.2915 45.0792 58.4803 52.3655C58.8176 54.8117 62.5299 55.197 63.3314 52.8161ZM68.2819 28.7245C70.9671 27.2661 75.0293 26.7631 77.3194 29.0795C79.7109 32.2751 80.3071 36.0447 80.2825 39.9594C80.255 39.9701 80.2284 39.9791 80.2009 39.9904C75.782 41.5789 70.0305 39.9701 65.0487 39.3181C65.1022 38.2708 65.1676 37.2292 65.2653 36.1986C65.6561 33.3468 65.753 30.3831 68.2819 28.7245Z" fill="#2F2B71"/>
<path d="M142.611 86.0669C139.754 73.6279 126.458 67.4806 114.619 67.3534C110.313 67.2203 106.077 67.6305 101.868 68.2226C109.749 58.4166 107.415 44.6045 108.117 32.9994C108.447 21.6499 109.944 12.0068 99.3722 4.49057C94.9379 1.21392 89.2249 0.576691 83.8691 0.740408C79.464 0.60012 68.3107 0.671855 63.3113 0.527518C51.1942 -1.80444 34.5757 3.54443 33.2755 17.5845C33.6093 28.0742 31.8009 37.9291 31.7196 48.6098C31.0373 57.8852 33.404 64.2601 37.6623 68.5708C26.3786 68.1896 14.9045 68.1734 5.23909 74.4615C3.20217 75.8568 2.97656 77.9892 3.75147 79.6984C2.55396 81.6512 1.63703 83.8923 1.31422 84.9825C-0.371257 91.04 0.782284 105.619 0.275802 111.985C0.493899 117.462 -0.693196 125.166 1.18955 130.387C3.45382 137.292 9.73264 142.593 16.9174 143.711C20.8981 144.23 25.5287 143.876 29.5288 143.948C32.4613 143.901 48.2823 143.699 51.5826 143.644C56.6434 143.805 61.8361 142.764 65.9643 139.663C68.5172 137.875 70.3881 135.525 71.7126 132.872C75.4775 138.401 81.8339 141.985 88.3912 142.866C99.8408 144.687 111.306 141.507 122.697 143.093C133.343 143.875 142.318 134.184 142.511 123.837L142.499 124.12C142.998 120.274 142.782 116.41 142.871 112.546C143.398 103.791 145.021 94.8981 142.611 86.0669ZM40.3848 48.7396C40.3223 39.0239 42.1987 29.1989 41.302 19.3995C40.878 14.6454 44.3157 10.8715 48.6097 8.99482C55.113 5.71036 62.8033 7.49939 69.8487 7.00852C75.2054 6.93303 82.0528 6.78609 87.3742 6.78291C94.7155 6.46097 101.684 12.054 102.837 19.3356C103.399 23.1292 102.902 29.1312 103.081 32.9991C102.785 45.5486 105.652 66.2979 90.6778 69.8447C88.7488 69.8939 86.9832 70.1013 85.3645 70.4481C71.5726 71.3283 48.1408 73.0635 41.5901 59.3538C40.1936 56.0343 40.1184 52.4577 40.3848 48.7396ZM74.8175 76.512C73.5682 77.9736 72.5468 79.6296 71.7158 81.4336C70.9224 79.7699 69.9528 78.2232 68.7703 76.8232C70.7951 76.7662 72.8187 76.6566 74.8175 76.512ZM64.6219 132.045C62.1317 135.448 57.8713 137.301 53.6945 137.423C49.0245 137.553 33.972 138.097 29.4157 138.213C25.7457 138.216 21.4179 138.6 17.7577 138.265C11.0195 137.392 5.49132 131.356 5.18095 124.562C4.99034 116.822 5.00335 102.211 4.82893 94.3187C4.25766 88.1651 5.53384 84.642 6.91705 82.3482C7.93117 82.5611 9.06273 82.3789 10.1784 81.5962C13.0614 79.5301 16.4638 78.3294 20.0257 77.6742C28.0675 76.2216 36.0318 76.9569 44.3198 76.6936C56.6888 75.9468 66.0664 79.1624 67.2983 92.6598C68.4446 100.408 67.6174 109.103 67.4788 117.034C67.8959 122.08 67.701 127.932 64.6219 132.045ZM135.329 129.198C133.698 134.438 128.65 138.357 123.107 138.216C107.528 135.641 85.5849 145.343 75.4015 129.063C74.921 127.095 74.5265 124.724 74.346 122.316C74.4455 120.681 74.4302 119.049 74.3217 117.457C74.3549 117.027 74.396 116.602 74.4516 116.188C74.4481 115.689 74.4411 115.16 74.4322 114.61C74.836 107.649 75.3245 100.376 74.7318 93.7214C75.9239 84.034 79.9685 75.9939 92.3806 77.0205C102.724 75.9792 113.831 73.7337 123.754 77.5701C138.697 82.3407 134.958 100.181 135.406 112.529C135.65 118.051 136.972 123.777 135.329 129.198Z" fill="#2F2B71"/>
<path d="M110.795 116.66C107.975 117.745 104.278 117.335 101.782 115.889C98.8144 113.981 97.8124 110.215 96.8131 107.008C95.4666 101.911 98.1234 94.9865 104.014 94.8222C106.366 94.751 108.881 95.8476 110.118 97.7442C113.346 100.84 117.827 95.6532 110.264 91.4044C104.799 88.0962 97.0855 89.6451 93.4531 94.9602C87.6409 102.741 88.4632 118.133 97.3297 123.323C102.835 126.386 110.922 125.539 114.424 119.943C115.731 117.505 113.093 115.504 110.795 116.66Z" fill="#2F2B71"/>
<path d="M44.5428 105.511C44.8373 105.078 45.0999 104.622 45.3232 104.147C48.5145 96.7951 42.7503 90.3962 35.4102 89.9383C31.5594 89.9545 23.7571 87.8534 23.8094 93.6978C24.0093 100.171 23.764 107.486 23.5422 114.039C23.4207 120.123 21.7737 126.23 30.3749 125.42C35.4368 125.599 41.1186 126.032 45.5124 122.86C50.4065 119.235 51.1372 111.701 46.9135 107.324C46.1881 106.583 45.3906 105.988 44.5428 105.511ZM30.2068 104.88C30.0315 101.685 29.8612 98.4918 29.661 95.3124C34.9379 94.9829 42.7043 95.3587 40.8328 101.924C40.473 102.963 39.9382 103.582 39.3215 103.97C36.4281 103.693 33.3947 104.131 30.7145 104.725C30.5314 104.759 30.363 104.813 30.2068 104.88ZM31.0179 117.126C30.8024 114.591 30.6283 112.047 30.4732 109.5C30.6129 109.541 30.7605 109.571 30.9172 109.588C34.252 110.371 40.9416 109.745 41.3613 114.085C40.9399 117.278 35.2173 117.07 31.0179 117.126Z" fill="#2F2B71"/>
</g>
<defs>
<clipPath id="clip0_68_435">
<rect width="144" height="144" fill="white"/>
</clipPath>
</defs>
</svg>
